<?xml version="1.0" encoding="UTF-8"?><svg xmlns="http://www.w3.org/2000/svg" viewBox="0 0 105.31 70.24"><defs><style>.d{fill:#fff;}</style></defs><g id="a"/><g id="b"><g id="c"><path class="d" d="M100.92,39.5H4.38c-2.42,0-4.38-1.96-4.38-4.38s1.96-4.38,4.38-4.38H100.92c2.42,0,4.38,1.96,4.38,4.38s-1.96,4.38-4.38,4.38Z"/><path class="d" d="M100.92,70.24h-36.2c-2.42,0-4.38-1.96-4.38-4.38s1.96-4.38,4.38-4.38h36.2c2.42,0,4.38,1.96,4.38,4.38s-1.96,4.38-4.38,4.38Z"/><path class="d" d="M100.92,8.77H28.52c-2.42,0-4.38-1.96-4.38-4.38S26.1,0,28.52,0H100.92c2.42,0,4.38,1.96,4.38,4.38s-1.96,4.38-4.38,4.38Z"/></g></g></svg>